<svg xmlns="http://www.w3.org/2000/svg" width="3066" height="1024" viewBox="0 0 3066 1024" version="1.1"><path d="M 509.456 415.250 C 506.802 417.587, 503.278 420.625, 501.625 422 C 499.971 423.375, 496.117 426.783, 493.059 429.573 C 490.002 432.362, 483.675 437.804, 479 441.666 C 474.325 445.527, 469.825 449.506, 469 450.507 C 468.175 451.509, 464.800 454.566, 461.500 457.301 C 458.200 460.036, 451.225 466.214, 446 471.030 C 440.775 475.846, 433.125 482.602, 429 486.042 C 424.875 489.482, 418.653 494.946, 415.174 498.185 C 411.695 501.423, 406.520 505.906, 403.674 508.145 C 400.828 510.385, 395.576 514.981, 392.002 518.359 C 388.428 521.736, 383.253 526.258, 380.502 528.407 C 377.751 530.556, 372.752 534.831, 369.393 537.907 C 350.430 555.274, 344.806 560.298, 340.391 563.810 C 337.701 565.949, 332.575 570.542, 329 574.016 C 325.425 577.490, 320.025 582.232, 317 584.554 C 313.975 586.875, 310.067 590.063, 308.316 591.638 C 306.564 593.212, 303.977 595.309, 302.566 596.297 C 298.359 599.243, 299.743 604, 304.807 604 C 306.131 604, 310.203 604.648, 313.857 605.440 C 317.511 606.232, 324.100 607.406, 328.500 608.049 C 338.374 609.491, 350.665 611.424, 362.500 613.395 C 372.134 615, 379.199 616.152, 393.500 618.451 C 398.450 619.247, 405.425 620.414, 409 621.045 C 412.575 621.676, 418.425 622.611, 422 623.124 C 425.575 623.637, 431.200 624.691, 434.500 625.466 C 437.800 626.241, 443.544 627.182, 447.264 627.556 C 450.984 627.930, 454.240 628.580, 454.500 629 C 454.760 629.421, 454.108 630.864, 453.051 632.208 C 451.994 633.552, 450.029 637.093, 448.685 640.076 C 447.341 643.059, 444.612 648.936, 442.621 653.135 C 440.629 657.334, 439 661.441, 439 662.262 C 439 663.083, 438.325 664.315, 437.500 665 C 436.675 665.685, 436 666.624, 436 667.088 C 436 667.552, 431.725 676.702, 426.500 687.422 C 421.275 698.143, 417 707.245, 417 707.649 C 417 708.398, 403.753 734.951, 399.450 742.825 C 398.151 745.203, 396.779 748.128, 396.403 749.325 C 395.693 751.580, 386.412 772.587, 385.192 774.698 C 384.811 775.358, 383.233 777.674, 381.685 779.845 C 379.352 783.119, 378.986 784.410, 379.547 787.397 C 380.099 790.340, 380.660 791, 382.611 791 C 384.144 791, 385 790.421, 385 789.384 C 385 787.432, 393.414 777.650, 408.987 761.500 C 415.351 754.900, 425.945 743.889, 432.529 737.031 C 439.113 730.174, 449.225 719.763, 455 713.897 C 460.775 708.030, 472.250 696.108, 480.500 687.404 C 495.227 671.866, 501.979 664.878, 527 639.277 C 567.503 597.838, 585.535 578.939, 585.805 577.647 C 586.263 575.458, 584.423 574.751, 576.082 573.908 C 571.912 573.487, 565.575 572.686, 562 572.128 C 558.425 571.569, 548.750 570.164, 540.500 569.005 C 532.250 567.846, 521.900 566.243, 517.500 565.444 C 513.100 564.645, 507.600 563.993, 505.278 563.995 C 502.957 563.998, 497.782 563.355, 493.778 562.566 C 489.775 561.777, 482.450 560.663, 477.500 560.090 C 460.323 558.102, 443.498 555.815, 443.088 555.413 C 442.622 554.957, 448.009 544.230, 454.343 533 C 464.306 515.336, 466.631 511.028, 471.615 501 C 473.118 497.975, 475.828 492.800, 477.637 489.500 C 485.954 474.326, 492.304 462.174, 494.880 456.500 C 498.314 448.938, 499.921 446.014, 503.947 440 C 505.972 436.975, 507.923 433.714, 508.282 432.753 C 508.641 431.791, 510.459 428.624, 512.321 425.713 C 516.104 419.798, 518.467 413.565, 517.512 412.020 C 516.356 410.149, 514.322 410.964, 509.456 415.250" stroke="none" fill="#169bd4" fill-rule="evenodd"/><path d="M 423.500 244.102 C 420.200 244.547, 414.125 245.192, 410 245.536 C 405.875 245.879, 400.025 246.595, 397 247.125 C 393.975 247.656, 389.158 248.478, 386.295 248.953 C 383.432 249.427, 379.607 250.270, 377.795 250.827 C 375.983 251.383, 372.250 252.144, 369.500 252.518 C 366.750 252.892, 363.723 253.613, 362.773 254.121 C 361.824 254.629, 356.874 256.192, 351.773 257.594 C 335.735 262.002, 332.585 262.973, 329.349 264.507 C 327.616 265.328, 325.659 266, 325 266 C 324.341 266, 322.384 266.622, 320.651 267.383 C 318.918 268.143, 315.925 269.345, 314 270.053 C 309.626 271.663, 278.240 287.010, 271.500 290.835 C 263.136 295.582, 240.691 309.229, 237.500 311.508 C 210.888 330.512, 182.185 356.449, 173.323 369.500 C 166.563 379.456, 162.048 403.393, 165.412 411.444 C 166.285 413.534, 167 416.099, 167 417.144 C 167 420.078, 174.517 434.343, 179.553 440.964 C 187.427 451.318, 199.879 460.290, 210.929 463.572 C 213.718 464.400, 216 465.510, 216 466.039 C 216 466.608, 221.709 467, 230 467 C 237.700 467, 244 466.611, 244 466.136 C 244 465.661, 246.137 464.474, 248.750 463.498 C 258.125 459.998, 266.263 454.619, 275.802 445.618 C 286.600 435.428, 300.404 423.848, 306.500 419.865 C 313.949 414.998, 324.492 408.391, 326 407.646 C 326.825 407.238, 329.136 405.914, 331.137 404.702 C 340.405 399.089, 349.894 394.013, 354 392.471 C 356.475 391.542, 359.850 390.204, 361.500 389.498 C 368.054 386.695, 391.929 379.150, 399 377.648 C 423.643 372.414, 449.539 370.385, 471.247 371.986 C 479.555 372.598, 486.611 373.257, 486.926 373.449 C 487.242 373.642, 491.607 374.297, 496.627 374.905 C 507.983 376.281, 529.731 381.774, 541 386.112 C 562.868 394.530, 566.824 396.499, 590.223 410.617 C 606.030 420.154, 620.293 431.087, 636.904 446.400 C 648.590 457.172, 652.545 459.754, 662.250 462.944 C 665.962 464.165, 669 465.576, 669 466.082 C 669 467.332, 690.742 467.268, 691.167 466.017 C 691.350 465.476, 694.692 464.223, 698.594 463.233 C 708.183 460.801, 715.996 455.967, 724.835 447 C 741.571 430.021, 746.682 417.460, 745.341 396.594 C 744.578 384.712, 741.993 376.896, 735.588 367.103 C 731.473 360.810, 717.473 346.469, 708.145 338.991 C 705.750 337.071, 701.337 333.283, 698.337 330.573 C 681.609 315.459, 653.696 297.689, 622 281.977 C 610.175 276.115, 598.925 270.744, 597 270.042 C 595.075 269.340, 592.082 268.143, 590.349 267.383 C 588.616 266.622, 586.343 266, 585.299 266 C 584.254 266, 582.905 265.505, 582.299 264.899 C 581.694 264.294, 578.341 262.985, 574.849 261.991 C 571.357 260.996, 563.775 258.731, 558 256.956 C 552.225 255.182, 544.575 253.135, 541 252.408 C 534.032 250.992, 527.215 249.526, 520.011 247.896 C 517.542 247.337, 510.567 246.455, 504.511 245.936 C 498.455 245.417, 490.205 244.544, 486.178 243.996 C 477.666 242.838, 432.312 242.915, 423.500 244.102" stroke="none" fill="#25abe4" fill-rule="evenodd"/><path d="M 437 15.737 C 433.425 15.931, 422.625 16.499, 413 17.001 C 393.036 18.041, 370.976 20.354, 360 22.558 C 355.875 23.387, 348.900 24.519, 344.500 25.074 C 340.100 25.629, 335.600 26.497, 334.500 27.004 C 333.400 27.510, 330.025 28.392, 327 28.963 C 314.700 31.287, 311.151 32.128, 303.500 34.531 C 299.100 35.913, 293.250 37.681, 290.500 38.460 C 280.335 41.339, 261.423 47.174, 259 48.180 C 257.625 48.750, 254.700 49.810, 252.500 50.535 C 250.300 51.260, 244.675 53.275, 240 55.014 C 235.325 56.752, 229.700 58.831, 227.500 59.634 C 225.300 60.436, 221.250 62.194, 218.500 63.541 C 215.750 64.887, 211.700 66.629, 209.500 67.413 C 202.636 69.856, 177.922 81.765, 168.500 87.169 C 163.550 90.008, 155.900 94.328, 151.500 96.769 C 147.100 99.210, 139.900 103.572, 135.500 106.461 C 131.100 109.351, 120.300 116.452, 111.500 122.242 C 94.905 133.160, 70.821 151.123, 63 158.415 C 60.525 160.723, 56.025 164.669, 53 167.184 C 43.887 174.760, 22.548 196.186, 19.225 201.096 C 17.515 203.625, 15.793 207, 15.399 208.596 C 15.006 210.193, 14.106 212.400, 13.400 213.500 C 12.694 214.600, 11.359 219.659, 10.433 224.742 C 8.840 233.485, 8.845 234.484, 10.525 243.242 C 11.502 248.334, 12.908 253.388, 13.650 254.473 C 14.393 255.557, 15 257.136, 15 257.981 C 15 260.945, 23.546 272.579, 31.541 280.500 C 40.892 289.764, 41.297 290.091, 47.045 293.023 C 63.783 301.562, 87.225 301.473, 103.500 292.808 C 107.860 290.486, 118.990 281.898, 118.996 280.850 C 119.001 280.051, 146.702 255.658, 157 247.384 C 161.125 244.071, 167.650 239.187, 171.500 236.532 C 175.350 233.877, 180.075 230.477, 182 228.975 C 183.925 227.474, 189.550 223.861, 194.500 220.947 C 199.450 218.034, 206.115 213.870, 209.311 211.695 C 220.628 203.994, 276.455 177, 281.065 177 C 281.885 177, 283.443 176.410, 284.527 175.690 C 285.612 174.969, 288.525 173.761, 291 173.005 C 293.475 172.249, 299.901 169.942, 305.281 167.879 C 314.658 164.282, 322.720 161.906, 339 157.942 C 343.125 156.938, 348.300 155.676, 350.500 155.138 C 364.358 151.748, 386.150 148.270, 402 146.919 C 407.775 146.427, 415.875 145.597, 420 145.074 C 424.125 144.551, 433.012 144.096, 439.750 144.062 L 452 144 452.002 101.250 C 452.004 77.737, 452.300 48.712, 452.662 36.750 L 453.319 15 448.409 15.193 C 445.709 15.299, 440.575 15.544, 437 15.737" stroke="none" fill="#df1f4d" fill-rule="evenodd"/><path d="M 452.662 36.750 C 452.300 48.712, 452.004 77.737, 452.002 101.250 L 452 144 467.250 144.051 C 475.637 144.080, 485.650 144.538, 489.500 145.069 C 493.350 145.601, 501.900 146.464, 508.500 146.988 C 528.332 148.562, 550.689 152.083, 562.500 155.493 C 565.250 156.287, 569.075 157.201, 571 157.524 C 580.915 159.188, 608.926 168.273, 632.534 177.481 C 636.365 178.975, 640.830 180.716, 642.456 181.349 C 651.836 185.002, 694.988 207.232, 703.169 212.626 C 708.486 216.132, 713.133 219, 713.495 219 C 714.136 219, 727.375 227.678, 731.634 230.890 C 732.808 231.776, 734.783 233.175, 736.023 234 C 748.418 242.246, 771.394 261.258, 789.757 278.463 C 798.829 286.963, 802.049 289.413, 808.500 292.725 C 815.791 296.468, 823.270 298.233, 833.890 298.717 C 850.845 299.488, 864.458 294.136, 877.975 281.385 C 881.718 277.853, 886.483 272.385, 888.562 269.232 C 890.642 266.079, 893.155 262.295, 894.148 260.823 C 896.294 257.639, 899.576 248.102, 900.454 242.500 C 900.799 240.300, 901.578 237.238, 902.185 235.695 C 903.052 233.491, 902.920 231.672, 901.570 227.195 C 900.625 224.063, 899.191 219.250, 898.383 216.500 C 895.373 206.259, 890.755 198.766, 881.500 189.111 C 873.322 180.578, 849.195 158.843, 837.995 149.918 C 819.178 134.922, 809.869 128.409, 777.490 107.582 C 763.520 98.596, 763.195 98.398, 759 96.327 C 757.075 95.377, 752.800 92.966, 749.500 90.970 C 738.158 84.109, 703.436 67, 700.854 67 C 700.279 67, 698.614 66.381, 697.154 65.624 C 690.547 62.199, 682.383 58.939, 665.500 52.981 C 660.550 51.234, 654.925 49.214, 653 48.493 C 642.197 44.441, 602.171 32.835, 589 29.935 C 585.975 29.269, 581.925 28.291, 580 27.762 C 572.797 25.781, 545.022 21.377, 525 19.039 C 516.441 18.040, 469.330 15.255, 457.909 15.073 L 453.319 15 452.662 36.750" stroke="none" fill="#e6e033" fill-rule="evenodd"/><path d="M 975.500 60.507 C 974.950 60.682, 973.236 61.105, 971.691 61.446 C 967.816 62.303, 960.582 69.220, 957.123 75.376 C 953.788 81.310, 950.554 90.948, 949.051 99.434 C 947.399 108.762, 947.839 135.750, 949.973 156 C 952.781 182.645, 1006.547 621.156, 1009.552 641.927 C 1013.780 671.143, 1018.316 688.150, 1024.724 698.814 C 1029.252 706.349, 1031.576 708.728, 1037.217 711.599 C 1047.405 716.785, 1061.787 713.934, 1068.887 705.320 C 1075.308 697.531, 1081.551 682.947, 1084.591 668.639 C 1087.736 653.829, 1091.755 625.269, 1118.014 431.093 C 1132.845 321.420, 1145.108 231.558, 1145.265 231.401 C 1145.422 231.244, 1157.174 318.277, 1171.379 424.808 C 1198.945 631.529, 1202.663 657.847, 1206.521 673.500 C 1209.350 684.982, 1216.104 699.600, 1221.382 705.662 C 1226.612 711.670, 1232.046 714, 1240.827 714 C 1255.934 714, 1263.711 706.503, 1271.653 684.284 C 1275.359 673.915, 1278.206 658.876, 1282.406 627.500 C 1284.515 611.741, 1330.232 239.112, 1338.597 169.500 C 1341.677 143.868, 1342.832 111.459, 1341.058 100.459 C 1339.633 91.626, 1336.010 80.427, 1332.877 75.171 C 1329.905 70.185, 1324.140 64.171, 1320.500 62.260 C 1316.671 60.250, 1307.263 60.295, 1303.304 62.343 C 1293.752 67.282, 1286.970 82.657, 1283.098 108.153 C 1281.983 115.494, 1271.600 207.225, 1260.025 312 C 1248.450 416.775, 1238.683 504.525, 1238.321 507 C 1237.829 510.363, 1232.410 472.323, 1216.882 356.500 C 1183.755 109.411, 1184.088 111.723, 1179.407 96.883 C 1176.153 86.567, 1170.089 74.310, 1165.855 69.487 C 1160.762 63.687, 1153.950 60.778, 1145.459 60.778 C 1131.692 60.778, 1124.154 66.540, 1116.105 83.215 C 1110.202 95.447, 1107.949 103.308, 1104.431 123.948 C 1102.982 132.444, 1090.668 223.119, 1077.066 325.448 C 1058.696 463.644, 1052.166 510.343, 1051.677 507 C 1051.316 504.525, 1041.775 418.800, 1030.476 316.500 C 1010.151 132.483, 1007.999 114.473, 1003.887 94 C 1000.267 75.971, 995.657 66.874, 988.263 63.168 C 984.612 61.338, 977.531 59.861, 975.500 60.507 M 1431.500 60.907 C 1426.911 62.048, 1424.668 63.518, 1420.528 68.101 C 1416.053 73.054, 1410.913 83.873, 1408.699 93 C 1404.413 110.671, 1404.500 104.548, 1404.500 387.500 C 1404.500 643.784, 1404.593 658.084, 1406.321 669 C 1409.566 689.491, 1415.939 704.038, 1424.549 710.605 C 1427.716 713.021, 1429.441 713.532, 1435.407 713.823 C 1441.917 714.141, 1442.863 713.924, 1446.918 711.184 C 1454.756 705.889, 1461.504 693.567, 1464.542 679 C 1467.921 662.801, 1468 656.179, 1468 387.327 C 1468 154.599, 1467.801 117.587, 1466.499 107.654 C 1464.279 90.715, 1459.860 77.937, 1453.202 69.200 C 1448.370 62.860, 1438.626 59.137, 1431.500 60.907 M 1868.358 60.957 C 1854.390 64.276, 1845.072 82.703, 1842.044 113 C 1841.199 121.450, 1840.988 196.103, 1841.247 394.500 C 1841.574 645.370, 1841.722 665.102, 1843.324 673 C 1845.554 683.986, 1848.588 693.357, 1851.742 699 C 1854.754 704.389, 1860.476 710.627, 1864.200 712.582 C 1867.821 714.483, 1877.395 714.381, 1881.575 712.397 C 1889.672 708.555, 1897.521 695.219, 1900.938 679.500 C 1905.056 660.554, 1905.125 655.210, 1904.783 378.500 C 1904.475 129.760, 1904.340 111.889, 1902.696 103.084 C 1899.281 84.796, 1893.916 72.645, 1886.302 65.961 C 1881.058 61.356, 1874.442 59.511, 1868.358 60.957 M 2177.917 60.933 C 2166.247 63.205, 2154.366 78.970, 2149.145 99.110 C 2144.454 117.206, 2144.500 114.252, 2144.500 394.500 C 2144.500 610.820, 2144.744 660.305, 2145.853 668.493 C 2147.355 679.588, 2150.960 693.042, 2154.060 699.117 C 2156.617 704.130, 2162.506 710.693, 2166.125 712.565 C 2169.711 714.419, 2179.304 714.411, 2182.901 712.551 C 2190.176 708.789, 2197.667 695.464, 2201.274 679.872 L 2203.442 670.500 2203.971 472.573 L 2204.500 274.646 2257.404 437.573 C 2323.103 639.904, 2330.759 663.091, 2336.485 677.072 C 2344.607 696.902, 2352.555 708.041, 2361.500 712.128 C 2366.902 714.597, 2378.087 714.600, 2383.500 712.134 C 2393.682 707.497, 2400.512 694.584, 2404.727 672 C 2406.397 663.050, 2406.500 646.385, 2406.500 384 C 2406.500 120.129, 2406.406 105.037, 2404.706 96.690 C 2401.089 78.920, 2394.666 66.816, 2386.664 62.692 C 2381.962 60.268, 2373.673 60.083, 2369.375 62.306 C 2360.458 66.917, 2354.007 80.033, 2350.343 101 C 2348.843 109.580, 2348.643 129.570, 2348.279 307.500 L 2347.876 504.500 2290.903 331.500 C 2259.568 236.350, 2229.192 143.650, 2223.402 125.500 C 2211.857 89.315, 2205.882 75.306, 2198.938 68.139 C 2192.890 61.898, 2185.672 59.423, 2177.917 60.933 M 1585.203 72.115 C 1570.126 74.625, 1561.250 85.763, 1556.484 108.153 C 1553.048 124.297, 1552.895 138.379, 1553.269 402.500 C 1553.668 683.386, 1553.385 668.054, 1558.493 685.624 C 1562.109 698.061, 1569.514 709.118, 1576.425 712.397 C 1578.347 713.309, 1582.365 714, 1585.751 714 C 1590.591 714, 1592.467 713.484, 1595.823 711.230 C 1606.512 704.051, 1613.438 687.168, 1615.957 662.144 C 1616.613 655.631, 1617 610.261, 1617 539.894 L 1617 428 1672.532 428 C 1733.705 428, 1731.745 428.188, 1738.247 421.686 C 1746.748 413.185, 1750.492 398.360, 1749.757 376.106 C 1749.352 363.844, 1748.850 360.216, 1746.631 353.500 C 1743.275 343.340, 1738.646 336.987, 1732.335 333.880 L 1727.500 331.500 1672.250 331.203 L 1617 330.906 1617 250.453 L 1617 170 1683.250 169.991 L 1749.500 169.981 1754.620 167.045 C 1763.913 161.715, 1769.078 150.619, 1771.245 131.328 C 1773.341 112.671, 1769.711 92.405, 1762.378 81.824 C 1758.513 76.247, 1753.465 73.135, 1746.411 71.980 C 1738.999 70.766, 1592.570 70.889, 1585.203 72.115 M 2525.361 71.986 C 2519.152 72.914, 2510.775 77.296, 2507.259 81.454 C 2502.944 86.556, 2498.205 97.939, 2495.791 109 L 2493.500 119.500 2493.500 387.500 L 2493.500 655.500 2495.752 665.665 C 2500.200 685.747, 2505.205 694.215, 2515.897 699.750 L 2522.232 703.029 2618.030 702.765 L 2713.828 702.500 2718.164 699.461 C 2723.395 695.795, 2728.297 687.966, 2731.288 678.500 C 2733.247 672.299, 2733.500 669.331, 2733.500 652.500 C 2733.500 635.669, 2733.247 632.701, 2731.288 626.500 C 2726.651 611.826, 2719.523 603.953, 2709.114 602.007 C 2705.808 601.389, 2675.384 601, 2630.364 601 L 2557 601 2557 511.500 L 2557 422 2625.532 422 C 2685.227 422, 2694.544 421.800, 2697.782 420.447 C 2705.524 417.213, 2710.550 410.172, 2714.161 397.500 C 2716.111 390.658, 2716.439 387.185, 2716.423 373.500 C 2716.409 361.287, 2715.984 355.976, 2714.626 351.060 C 2711.308 339.051, 2706.405 331.936, 2698.500 327.662 C 2694.527 325.514, 2694.044 325.498, 2625.750 325.205 L 2557 324.910 2557 247.455 L 2557 170 2631.750 169.978 C 2701.890 169.957, 2706.747 169.844, 2710.509 168.135 C 2722.349 162.756, 2729 145.849, 2729 121.130 C 2729 95.641, 2722.497 79.369, 2710 73.583 C 2705.556 71.526, 2704.408 71.498, 2618 71.359 C 2569.875 71.282, 2528.187 71.564, 2525.361 71.986 M 2799.147 72.060 C 2786.602 74.571, 2778.296 84.954, 2774.537 102.825 C 2772.522 112.403, 2772.504 136.971, 2774.504 146.500 C 2777.601 161.248, 2785.851 173.141, 2794.858 175.839 C 2797.500 176.631, 2810.698 177, 2836.366 177 L 2874 177 2874 416.449 C 2874 676.822, 2873.839 668.891, 2879.484 686.760 C 2882.934 697.680, 2888.597 706.752, 2894.460 710.750 C 2898.528 713.524, 2900.103 714, 2905.212 714 C 2908.632 714, 2912.646 713.313, 2914.575 712.397 C 2924.659 707.612, 2932.301 691.726, 2936.173 667.500 C 2936.968 662.528, 2937.403 590.464, 2937.677 418.750 L 2938.062 177 2976.063 177 C 3018.387 177, 3018.272 177.016, 3025.338 170.201 C 3029.904 165.797, 3034.182 157.752, 3036.654 148.920 C 3039.237 139.689, 3039.237 109.311, 3036.654 100.080 C 3032.825 86.398, 3026.612 77.569, 3018.011 73.588 C 3013.534 71.516, 3012.706 71.499, 2908.500 71.344 C 2850.750 71.258, 2801.541 71.580, 2799.147 72.060 M 2020.500 584.931 C 2015.894 586.039, 2013.743 587.470, 2009.078 592.532 C 2004.124 597.906, 1998.833 608.729, 1995.746 619.802 C 1993.838 626.642, 1993.601 630.007, 1993.620 650 C 1993.638 670.063, 1993.879 673.367, 1995.843 680.500 C 1998.945 691.767, 2003.118 700.143, 2008.489 705.885 C 2014.313 712.111, 2018.287 714, 2025.563 714 C 2042.456 714, 2054.182 694.426, 2057.134 661.302 C 2059.005 640.308, 2056.171 620.817, 2049 605.348 C 2041.831 589.882, 2031.296 582.335, 2020.500 584.931 M 122 837.279 C 120.625 837.966, 118.713 840.097, 117.752 842.014 C 116.162 845.184, 116.003 849.741, 116.002 892.282 C 116 944.630, 116.027 944.860, 122.432 947.536 C 125.253 948.715, 131.991 949, 157.018 949 C 194.136 949, 195.060 948.773, 194.968 939.668 C 194.933 936.118, 193.548 933.885, 190.316 932.163 C 188.826 931.370, 180.324 931, 163.566 931 L 139 931 139 888.468 C 139 841.735, 138.861 840.531, 133.128 837.566 C 129.493 835.686, 125.399 835.580, 122 837.279 M 250.207 837.669 C 248.395 838.561, 245.819 841.158, 244.482 843.440 C 240.548 850.153, 207 937.459, 207 940.985 C 207 945.709, 212.535 951, 217.477 951 C 223.019 951, 225.983 947.323, 231.009 934.209 L 235.320 922.963 257.740 923.232 L 280.160 923.500 283.489 932.110 C 288.529 945.151, 290.522 948.559, 293.931 949.971 C 298.357 951.805, 303.378 950.527, 306.547 946.762 C 308.754 944.139, 309.133 942.876, 308.747 939.448 C 308.202 934.617, 274 848.226, 270.525 842.906 C 266.338 836.494, 257.311 834.167, 250.207 837.669 M 318.048 838.798 C 314.496 842.350, 313.998 847.156, 316.650 852.300 C 317.558 854.060, 324.983 865.967, 333.150 878.759 L 348 902.018 348 921.541 C 348 943.325, 348.726 946.773, 353.872 949.434 C 357.716 951.422, 361.284 951.422, 365.128 949.434 C 370.275 946.772, 371 943.327, 371 921.516 L 371 901.969 386.626 877.806 C 395.220 864.516, 402.910 852.067, 403.715 850.141 C 405.368 846.184, 404.809 841.552, 402.351 838.835 C 400.139 836.391, 394.626 835.498, 391.006 836.997 C 387.799 838.326, 386.794 839.739, 370.922 865.249 C 365.190 874.461, 360.233 881.998, 359.908 881.999 C 359.582 882, 353.657 872.872, 346.742 861.715 C 339.826 850.558, 333.325 840.388, 332.295 839.115 C 330.991 837.506, 329.003 836.642, 325.758 836.276 C 321.553 835.802, 320.797 836.050, 318.048 838.798 M 454.207 837.669 C 452.395 838.561, 449.819 841.158, 448.482 843.440 C 444.548 850.153, 411 937.459, 411 940.985 C 411 945.709, 416.535 951, 421.477 951 C 427.019 951, 429.983 947.323, 435.009 934.209 L 439.320 922.963 461.740 923.232 L 484.160 923.500 487.489 932.110 C 492.529 945.151, 494.522 948.559, 497.931 949.971 C 502.357 951.805, 507.378 950.527, 510.547 946.762 C 512.754 944.139, 513.133 942.876, 512.747 939.448 C 512.202 934.617, 478 848.226, 474.525 842.906 C 470.338 836.494, 461.311 834.167, 454.207 837.669 M 544 837.752 C 536.851 841.323, 536.942 840.548, 537.237 895.833 L 537.500 945.165 540.766 948.083 C 545.178 952.025, 549.821 952.025, 554.234 948.083 L 557.500 945.166 558 909.458 L 558.500 873.750 580.447 907.565 C 603.391 942.916, 606.499 947.172, 611.099 949.551 C 618.023 953.132, 627.049 949.979, 629 943.298 C 629.765 940.680, 630.015 924.329, 629.805 890.667 L 629.500 841.835 626.234 838.917 C 621.821 834.975, 617.179 834.975, 612.766 838.917 L 609.500 841.834 609 878.087 L 608.500 914.340 584.001 877.004 C 567.537 851.913, 558.517 839.067, 556.501 837.838 C 552.726 835.535, 548.495 835.506, 544 837.752 M 693.207 837.669 C 691.395 838.561, 688.819 841.158, 687.482 843.440 C 683.548 850.153, 650 937.459, 650 940.985 C 650 945.709, 655.535 951, 660.477 951 C 666.019 951, 668.983 947.323, 674.009 934.209 L 678.320 922.963 700.740 923.232 L 723.160 923.500 726.489 932.110 C 731.529 945.151, 733.522 948.559, 736.931 949.971 C 741.357 951.805, 746.378 950.527, 749.547 946.762 C 751.754 944.139, 752.133 942.876, 751.747 939.448 C 751.202 934.617, 717 848.226, 713.525 842.906 C 709.338 836.494, 700.311 834.167, 693.207 837.669 M 784 837.752 C 776.851 841.323, 776.942 840.548, 777.237 895.833 L 777.500 945.165 780.766 948.083 C 785.178 952.025, 789.821 952.025, 794.234 948.083 L 797.500 945.166 798 909.458 L 798.500 873.750 820.447 907.565 C 843.391 942.916, 846.499 947.172, 851.099 949.551 C 858.023 953.132, 867.049 949.979, 869 943.298 C 869.765 940.680, 870.015 924.329, 869.805 890.667 L 869.500 841.835 866.234 838.917 C 861.821 834.975, 857.179 834.975, 852.766 838.917 L 849.500 841.834 849 878.087 L 848.500 914.340 824.001 877.004 C 807.537 851.913, 798.517 839.067, 796.501 837.838 C 792.726 835.535, 788.495 835.506, 784 837.752 M 1092.207 837.669 C 1090.395 838.561, 1087.819 841.158, 1086.482 843.440 C 1082.548 850.153, 1049 937.459, 1049 940.985 C 1049 945.709, 1054.535 951, 1059.477 951 C 1065.019 951, 1067.983 947.323, 1073.009 934.209 L 1077.320 922.963 1099.740 923.232 L 1122.160 923.500 1125.489 932.110 C 1130.529 945.151, 1132.522 948.559, 1135.931 949.971 C 1140.357 951.805, 1145.378 950.527, 1148.547 946.762 C 1150.754 944.139, 1151.133 942.876, 1150.747 939.448 C 1150.202 934.617, 1116 848.226, 1112.525 842.906 C 1108.338 836.494, 1099.311 834.167, 1092.207 837.669 M 1292.207 837.669 C 1290.395 838.561, 1287.819 841.158, 1286.482 843.440 C 1282.548 850.153, 1249 937.459, 1249 940.985 C 1249 945.709, 1254.535 951, 1259.477 951 C 1265.019 951, 1267.983 947.323, 1273.009 934.209 L 1277.320 922.963 1299.740 923.232 L 1322.160 923.500 1325.489 932.110 C 1330.529 945.151, 1332.522 948.559, 1335.931 949.971 C 1340.357 951.805, 1345.378 950.527, 1348.547 946.762 C 1350.754 944.139, 1351.133 942.876, 1350.747 939.448 C 1350.202 934.617, 1316 848.226, 1312.525 842.906 C 1308.338 836.494, 1299.311 834.167, 1292.207 837.669 M 1426.381 837.910 C 1424.665 838.956, 1422.753 841.271, 1422.131 843.055 C 1421.351 845.291, 1421 861.022, 1421 893.681 C 1421 945.700, 1421.078 946.437, 1426.872 949.434 C 1432.976 952.590, 1440.130 950.327, 1442.579 944.466 C 1443.739 941.688, 1444 932.345, 1444 893.500 C 1444 841.283, 1443.924 840.564, 1438.128 837.566 C 1434.096 835.481, 1430.176 835.595, 1426.381 837.910 M 1481 837.752 C 1473.851 841.323, 1473.942 840.548, 1474.237 895.833 L 1474.500 945.165 1477.766 948.083 C 1482.178 952.025, 1486.821 952.025, 1491.234 948.083 L 1494.500 945.166 1495 909.458 L 1495.500 873.750 1517.447 907.565 C 1540.391 942.916, 1543.499 947.172, 1548.099 949.551 C 1555.023 953.132, 1564.049 949.979, 1566 943.298 C 1566.765 940.680, 1567.015 924.329, 1566.805 890.667 L 1566.500 841.835 1563.234 838.917 C 1558.821 834.975, 1554.179 834.975, 1549.766 838.917 L 1546.500 841.834 1546 878.087 L 1545.500 914.340 1521.001 877.004 C 1504.537 851.913, 1495.517 839.067, 1493.501 837.838 C 1489.726 835.535, 1485.495 835.506, 1481 837.752 M 1937 837.752 C 1929.851 841.323, 1929.942 840.548, 1930.237 895.833 L 1930.500 945.165 1933.766 948.083 C 1938.178 952.025, 1942.821 952.025, 1947.234 948.083 L 1950.500 945.166 1951 909.458 L 1951.500 873.750 1973.447 907.565 C 1996.391 942.916, 1999.499 947.172, 2004.099 949.551 C 2011.023 953.132, 2020.049 949.979, 2022 943.298 C 2022.765 940.680, 2023.015 924.329, 2022.805 890.667 L 2022.500 841.835 2019.234 838.917 C 2014.821 834.975, 2010.179 834.975, 2005.766 838.917 L 2002.500 841.834 2002 878.087 L 2001.500 914.340 1977.001 877.004 C 1960.537 851.913, 1951.517 839.067, 1949.501 837.838 C 1945.726 835.535, 1941.495 835.506, 1937 837.752 M 2791.207 837.669 C 2789.395 838.561, 2786.819 841.158, 2785.482 843.440 C 2781.548 850.153, 2748 937.459, 2748 940.985 C 2748 945.709, 2753.535 951, 2758.477 951 C 2764.019 951, 2766.983 947.323, 2772.009 934.209 L 2776.320 922.963 2798.740 923.232 L 2821.160 923.500 2824.489 932.110 C 2829.529 945.151, 2831.522 948.559, 2834.931 949.971 C 2839.357 951.805, 2844.378 950.527, 2847.547 946.762 C 2849.754 944.139, 2850.133 942.876, 2849.747 939.448 C 2849.202 934.617, 2815 848.226, 2811.525 842.906 C 2807.338 836.494, 2798.311 834.167, 2791.207 837.669 M 2881.381 837.910 C 2879.665 838.956, 2877.753 841.271, 2877.131 843.055 C 2876.351 845.291, 2876 861.022, 2876 893.681 C 2876 945.700, 2876.078 946.437, 2881.872 949.434 C 2887.976 952.590, 2895.130 950.327, 2897.579 944.466 C 2898.739 941.688, 2899 932.345, 2899 893.500 C 2899 841.283, 2898.924 840.564, 2893.128 837.566 C 2889.096 835.481, 2885.176 835.595, 2881.381 837.910 M 2935 837.279 C 2933.625 837.966, 2931.713 840.097, 2930.752 842.014 C 2929.160 845.187, 2929.003 849.789, 2929.002 893.282 C 2929 945.737, 2929.073 946.435, 2934.872 949.434 C 2940.976 952.590, 2948.130 950.327, 2950.579 944.466 C 2951.568 942.098, 2952 936.976, 2952 927.614 L 2952 914.163 2961.170 905.664 L 2970.340 897.164 2977.946 908.832 C 2982.129 915.249, 2989.522 926.657, 2994.375 934.183 C 3003.804 948.807, 3006.283 951, 3013.385 951 C 3015.928 951, 3017.913 950.156, 3020.220 948.095 C 3022.927 945.676, 3023.453 944.514, 3023.365 941.154 C 3023.231 936.046, 3021.688 933.442, 3001.820 904.802 L 2985.708 881.576 3001.262 866.538 C 3013.309 854.891, 3016.971 850.752, 3017.502 848.184 C 3018.934 841.262, 3014.122 836.021, 3006.300 835.981 C 3002.676 835.962, 3001.736 836.761, 2986 853.231 C 2976.925 862.729, 2965.569 874.550, 2960.764 879.500 L 2952.027 888.500 2952.014 867.218 C 2952.003 851.112, 2951.654 845.108, 2950.579 842.534 C 2948.223 836.895, 2940.787 834.387, 2935 837.279 M 951.213 839.507 C 945.075 842.173, 945 842.822, 945 893.500 C 945 944.509, 945.043 944.866, 951.432 947.536 C 955.738 949.335, 993.270 949.614, 1002.566 947.916 C 1021.376 944.481, 1034.847 930.016, 1038.542 909.287 C 1042.790 885.457, 1037.669 863.510, 1024.875 850.716 C 1014.162 840.002, 1006.274 837.999, 975 838.047 C 959.493 838.071, 953.699 838.426, 951.213 839.507 M 1155.345 839.913 C 1149.705 843.385, 1150.015 851.405, 1155.907 854.452 C 1158.193 855.634, 1162.224 856, 1172.950 856 L 1187 856 1187 898.532 C 1187 945.265, 1187.139 946.469, 1192.872 949.434 C 1198.976 952.590, 1206.130 950.327, 1208.579 944.466 C 1209.731 941.707, 1210 933.038, 1210 898.603 L 1210 856.141 1225.475 855.820 C 1239.979 855.520, 1241.091 855.359, 1243.202 853.245 C 1246.298 850.146, 1246.297 843.853, 1243.200 840.755 L 1240.946 838.500 1199.723 838.236 C 1160.409 837.984, 1158.354 838.061, 1155.345 839.913 M 1590.345 839.913 C 1584.705 843.385, 1585.015 851.405, 1590.907 854.452 C 1593.193 855.634, 1597.224 856, 1607.950 856 L 1622 856 1622 898.532 C 1622 945.265, 1622.139 946.469, 1627.872 949.434 C 1633.976 952.590, 1641.130 950.327, 1643.579 944.466 C 1644.731 941.707, 1645 933.038, 1645 898.603 L 1645 856.141 1660.475 855.820 C 1674.979 855.520, 1676.091 855.359, 1678.202 853.245 C 1681.298 850.146, 1681.297 843.853, 1678.200 840.755 L 1675.946 838.500 1634.723 838.236 C 1595.409 837.984, 1593.354 838.061, 1590.345 839.913 M 1708.213 839.507 C 1702.075 842.173, 1702 842.822, 1702 893.500 C 1702 944.623, 1702.029 944.861, 1708.519 947.572 C 1711.529 948.830, 1717.837 949.026, 1747.528 948.786 C 1782.767 948.501, 1782.958 948.489, 1785.201 946.245 C 1788.298 943.146, 1788.298 936.854, 1785.201 933.755 C 1782.981 931.533, 1782.518 931.496, 1753.974 931.207 L 1725 930.913 1725 915.457 L 1725 900 1750.365 900 C 1774.512 900, 1775.857 899.900, 1778.365 897.927 C 1780.491 896.255, 1781 895.014, 1781 891.500 C 1781 887.986, 1780.491 886.745, 1778.365 885.073 C 1775.857 883.100, 1774.512 883, 1750.365 883 L 1725 883 1725 869 L 1725 855 1752.577 855 L 1780.154 855 1783.077 852.077 C 1784.839 850.315, 1786 848.100, 1786 846.500 C 1786 844.900, 1784.839 842.685, 1783.077 840.923 L 1780.154 838 1745.827 838.039 C 1718.347 838.070, 1710.844 838.363, 1708.213 839.507 M 1817.213 839.507 C 1811.059 842.180, 1811 842.705, 1811.002 894.718 C 1811.003 937.259, 1811.162 941.816, 1812.752 944.986 C 1815.647 950.759, 1822.008 952.599, 1828.128 949.434 C 1833.298 946.760, 1834 943.364, 1834 921.032 L 1834 901 1840.750 901.022 C 1853.871 901.065, 1857.069 903.953, 1872.277 929.500 C 1877.515 938.300, 1882.906 946.530, 1884.257 947.790 C 1889.328 952.517, 1898.655 951.502, 1901.547 945.909 C 1903.756 941.637, 1903.405 939.983, 1898.030 929.341 C 1892.060 917.521, 1884.437 907.183, 1877.856 901.980 L 1873.017 898.155 1876.219 897.452 C 1885.398 895.436, 1894.452 888.954, 1898.114 881.777 C 1900.947 876.223, 1901.620 866.646, 1899.653 859.878 C 1896.509 849.062, 1888.902 842.127, 1877.147 839.360 C 1868.891 837.417, 1821.757 837.532, 1817.213 839.507 M 2059.213 839.507 C 2053.075 842.173, 2053 842.822, 2053 893.500 C 2053 944.623, 2053.029 944.861, 2059.519 947.572 C 2062.529 948.830, 2068.837 949.026, 2098.528 948.786 C 2133.767 948.501, 2133.958 948.489, 2136.201 946.245 C 2139.298 943.146, 2139.298 936.854, 2136.201 933.755 C 2133.981 931.533, 2133.518 931.496, 2104.974 931.207 L 2076 930.913 2076 915.457 L 2076 900 2101.365 900 C 2125.512 900, 2126.857 899.900, 2129.365 897.927 C 2131.491 896.255, 2132 895.014, 2132 891.500 C 2132 887.986, 2131.491 886.745, 2129.365 885.073 C 2126.857 883.100, 2125.512 883, 2101.365 883 L 2076 883 2076 869 L 2076 855 2103.577 855 L 2131.154 855 2134.077 852.077 C 2135.839 850.315, 2137 848.100, 2137 846.500 C 2137 844.900, 2135.839 842.685, 2134.077 840.923 L 2131.154 838 2096.827 838.039 C 2069.347 838.070, 2061.844 838.363, 2059.213 839.507 M 2155.345 839.913 C 2149.705 843.385, 2150.015 851.405, 2155.907 854.452 C 2158.193 855.634, 2162.224 856, 2172.950 856 L 2187 856 2187 898.532 C 2187 945.265, 2187.139 946.469, 2192.872 949.434 C 2198.976 952.590, 2206.130 950.327, 2208.579 944.466 C 2209.731 941.707, 2210 933.038, 2210 898.603 L 2210 856.141 2225.475 855.820 C 2239.979 855.520, 2241.091 855.359, 2243.202 853.245 C 2246.298 850.146, 2246.297 843.853, 2243.200 840.755 L 2240.946 838.500 2199.723 838.236 C 2160.409 837.984, 2158.354 838.061, 2155.345 839.913 M 2304.345 839.913 C 2298.705 843.385, 2299.015 851.405, 2304.907 854.452 C 2307.193 855.634, 2311.224 856, 2321.950 856 L 2336 856 2336 898.532 C 2336 945.265, 2336.139 946.469, 2341.872 949.434 C 2347.976 952.590, 2355.130 950.327, 2357.579 944.466 C 2358.731 941.707, 2359 933.038, 2359 898.603 L 2359 856.141 2374.475 855.820 C 2388.979 855.520, 2390.091 855.359, 2392.202 853.245 C 2395.298 850.146, 2395.297 843.853, 2392.200 840.755 L 2389.946 838.500 2348.723 838.236 C 2309.409 837.984, 2307.354 838.061, 2304.345 839.913 M 2422.213 839.507 C 2416.075 842.173, 2416 842.822, 2416 893.500 C 2416 944.623, 2416.029 944.861, 2422.519 947.572 C 2425.529 948.830, 2431.837 949.026, 2461.528 948.786 C 2496.767 948.501, 2496.958 948.489, 2499.201 946.245 C 2502.298 943.146, 2502.298 936.854, 2499.201 933.755 C 2496.981 931.533, 2496.518 931.496, 2467.974 931.207 L 2439 930.913 2439 915.457 L 2439 900 2464.365 900 C 2488.512 900, 2489.857 899.900, 2492.365 897.927 C 2494.491 896.255, 2495 895.014, 2495 891.500 C 2495 887.986, 2494.491 886.745, 2492.365 885.073 C 2489.857 883.100, 2488.512 883, 2464.365 883 L 2439 883 2439 869 L 2439 855 2466.577 855 L 2494.154 855 2497.077 852.077 C 2498.839 850.315, 2500 848.100, 2500 846.500 C 2500 844.900, 2498.839 842.685, 2497.077 840.923 L 2494.154 838 2459.827 838.039 C 2432.347 838.070, 2424.844 838.363, 2422.213 839.507 M 2531.213 839.507 C 2525.059 842.180, 2525 842.705, 2525.002 894.718 C 2525.003 937.259, 2525.162 941.816, 2526.752 944.986 C 2529.647 950.759, 2536.008 952.599, 2542.128 949.434 C 2547.298 946.760, 2548 943.364, 2548 921.032 L 2548 901 2554.750 901.022 C 2567.871 901.065, 2571.069 903.953, 2586.277 929.500 C 2591.515 938.300, 2596.906 946.530, 2598.257 947.790 C 2603.328 952.517, 2612.655 951.502, 2615.547 945.909 C 2617.756 941.637, 2617.405 939.983, 2612.030 929.341 C 2606.060 917.521, 2598.437 907.183, 2591.856 901.980 L 2587.017 898.155 2590.219 897.452 C 2599.398 895.436, 2608.452 888.954, 2612.114 881.777 C 2614.947 876.223, 2615.620 866.646, 2613.653 859.878 C 2610.509 849.062, 2602.902 842.127, 2591.147 839.360 C 2582.891 837.417, 2535.757 837.532, 2531.213 839.507 M 2650.213 839.507 C 2644.075 842.173, 2644 842.822, 2644 893.500 C 2644 944.794, 2644.007 944.852, 2650.653 947.629 C 2656.206 949.949, 2705.919 949.102, 2714.117 946.547 C 2722.281 944.003, 2728.857 938.631, 2732.482 931.542 C 2735.110 926.404, 2735.498 924.598, 2735.483 917.571 C 2735.469 911.246, 2734.998 908.620, 2733.305 905.432 C 2730.435 900.027, 2724.384 894.694, 2718.628 892.496 L 2713.949 890.709 2717.225 888.753 C 2732.304 879.745, 2735.321 861.599, 2723.898 848.621 C 2715.679 839.284, 2710.016 837.987, 2677.701 838.039 C 2658.999 838.069, 2652.753 838.403, 2650.213 839.507 M 1834 870.004 L 1834 885.210 1849.750 884.819 C 1863.253 884.484, 1866.182 884.118, 1870.284 882.255 C 1873.974 880.579, 1875.427 879.223, 1876.639 876.321 C 1878.486 871.901, 1878.023 865.210, 1875.615 861.535 C 1872.290 856.460, 1868.889 855.590, 1850.750 855.179 L 1834 854.798 1834 870.004 M 2548 870.004 L 2548 885.210 2563.750 884.819 C 2577.253 884.484, 2580.182 884.118, 2584.284 882.255 C 2587.974 880.579, 2589.427 879.223, 2590.639 876.321 C 2592.486 871.901, 2592.023 865.210, 2589.615 861.535 C 2586.290 856.460, 2582.889 855.590, 2564.750 855.179 L 2548 854.798 2548 870.004 M 2667 869.498 L 2667 884.210 2682.927 883.855 C 2700.243 883.469, 2701.639 883.043, 2706.381 876.692 C 2708.971 873.222, 2709.093 865.318, 2706.615 861.534 C 2703.527 856.822, 2699.048 855.658, 2682.250 855.201 L 2667 854.786 2667 869.498 M 968 893.387 L 968 931 980.818 931 C 989.184 931, 995.356 930.489, 998.586 929.530 C 1011.128 925.806, 1018.003 910.288, 1016.718 888.602 C 1015.962 875.850, 1013.906 869.927, 1008.193 864.037 C 1002.204 857.864, 998.886 856.889, 981.750 856.270 L 968 855.773 968 893.387 M 249.348 882.743 L 241.277 905.500 249.688 905.790 C 254.313 905.949, 261.627 905.949, 265.941 905.790 L 273.784 905.500 265.601 882.743 L 257.419 859.986 249.348 882.743 M 453.348 882.743 L 445.277 905.500 453.688 905.790 C 458.313 905.949, 465.627 905.949, 469.941 905.790 L 477.784 905.500 469.601 882.743 L 461.419 859.986 453.348 882.743 M 692.348 882.743 L 684.277 905.500 692.688 905.790 C 697.313 905.949, 704.627 905.949, 708.941 905.790 L 716.784 905.500 708.601 882.743 L 700.419 859.986 692.348 882.743 M 1091.348 882.743 L 1083.277 905.500 1091.688 905.790 C 1096.313 905.949, 1103.627 905.949, 1107.941 905.790 L 1115.784 905.500 1107.601 882.743 L 1099.419 859.986 1091.348 882.743 M 1291.348 882.743 L 1283.277 905.500 1291.688 905.790 C 1296.313 905.949, 1303.627 905.949, 1307.941 905.790 L 1315.784 905.500 1307.601 882.743 L 1299.419 859.986 1291.348 882.743 M 2790.348 882.743 L 2782.277 905.500 2790.688 905.790 C 2795.313 905.949, 2802.627 905.949, 2806.941 905.790 L 2814.784 905.500 2806.601 882.743 L 2798.419 859.986 2790.348 882.743 M 2667 916 L 2667 932.169 2683.750 931.834 C 2698.096 931.548, 2701.065 931.213, 2704.435 929.500 C 2709.870 926.738, 2712.246 923.107, 2712.753 916.791 C 2713.102 912.450, 2712.756 910.872, 2710.826 908 C 2706.560 901.652, 2702.731 900.545, 2683.750 900.166 L 2667 899.831 2667 916" stroke="none" fill="#181818" fill-rule="evenodd"/></svg>