<svg xmlns="http://www.w3.org/2000/svg" width="1042" height="1042" viewBox="0 0 1042 1042" version="1.1"><path d="M 658.741 383 C 650.014 409.987, 638.569 429.522, 621.535 446.507 C 605.241 462.755, 584.685 475.208, 562.502 482.268 L 552.500 485.452 557.340 486.156 C 587.716 490.575, 613.995 512.793, 624.575 543 C 626.055 547.226, 626.877 548.623, 626.926 546.993 C 627.042 543.061, 631.388 528.251, 634.845 520 C 643.266 499.908, 660.689 479.906, 682 465.867 C 690.701 460.135, 707.740 451.321, 716.750 447.890 C 720.188 446.581, 723 445.277, 723 444.992 C 723 444.707, 720.862 443.959, 718.250 443.331 C 691.289 436.848, 668.963 415.152, 661.026 387.720 C 660.036 384.299, 659.008 382.175, 658.741 383 M 624.539 597.500 C 615.966 619.759, 601.504 636.135, 581.475 646.265 C 574.584 649.749, 563.612 652.962, 553.882 654.345 L 545.744 655.502 554.122 658.897 C 558.730 660.765, 565.850 663.963, 569.945 666.006 L 577.391 669.720 584.945 665.136 C 590.645 661.677, 628.922 636.416, 635.405 631.833 C 635.953 631.446, 634.977 627.697, 633.076 622.885 C 630.309 615.883, 627.384 605.800, 625.712 597.500 L 625.310 595.500 624.539 597.500 M 667.345 698.337 C 656.911 706.127, 646.041 714.075, 643.189 716 C 640.337 717.925, 638.003 719.822, 638.002 720.216 C 638.001 720.609, 640.506 724.775, 643.569 729.474 C 646.631 734.173, 650.865 741.757, 652.977 746.329 C 656.890 754.799, 662.924 772.769, 663.094 776.460 C 663.146 777.582, 663.788 775.575, 664.522 772 C 669.700 746.764, 685.092 725.651, 707.096 713.598 C 714.066 709.781, 726.991 705, 730.342 705 C 733.634 705, 731.741 704.067, 720.358 700.079 C 708.211 695.823, 696.556 690.639, 690.408 686.758 L 686.316 684.174 667.345 698.337" stroke="none" fill="#0293bc" fill-rule="evenodd"/><path d="M 377.374 287.146 C 359.269 288.710, 340.261 297.836, 326.548 311.548 C 279.552 358.544, 302.999 438.648, 368.084 453.451 C 377.673 455.632, 394.327 455.632, 403.916 453.451 C 452.744 442.345, 481.636 391.788, 466.008 344.796 C 455.026 311.775, 425.331 288.951, 390.500 286.759 C 387.750 286.586, 381.843 286.760, 377.374 287.146 M 730.108 287.071 C 694.413 290.686, 665.734 317.660, 659.517 353.465 C 659.139 355.645, 658.853 361.945, 658.883 367.465 C 659.115 410.337, 693.663 444.885, 736.535 445.117 C 754.707 445.215, 766.591 441.815, 781.419 432.273 C 817.876 408.816, 828.162 359.496, 804.295 322.581 C 791.827 303.297, 769.448 289.330, 748 287.447 C 744.425 287.133, 740.600 286.752, 739.500 286.600 C 738.400 286.447, 734.174 286.659, 730.108 287.071 M 524.493 487.889 C 494.835 495.919, 473.295 515.824, 463.992 543.796 C 449.425 587.598, 473.556 635.295, 517.714 649.980 C 572.325 668.142, 628.038 628.025, 628.093 570.500 C 628.112 550.822, 623.472 535.944, 612.498 520.500 C 602.200 506.007, 586.499 494.760, 568.500 488.983 C 558.410 485.744, 534.600 485.152, 524.493 487.889 M 739.110 704.176 C 704.578 707.116, 674.858 732.852, 665.982 767.500 C 663.344 777.799, 663.143 795.335, 665.541 805.881 C 672.891 838.194, 697.793 863.106, 730.084 870.451 C 739.335 872.555, 756.458 872.633, 765.176 870.611 C 782.158 866.673, 796.267 858.886, 808 846.977 C 840.034 814.461, 840.256 762.225, 808.500 729.468 C 790.223 710.614, 766.225 701.868, 739.110 704.176" stroke="none" fill="#02b0e2" fill-rule="evenodd"/><path d="M 750.500 185.073 C 690.707 190.132, 627.070 207.854, 558.500 238.542 C 532.129 250.344, 494.409 270.358, 469.500 285.765 C 456.638 293.721, 456.794 294.124, 470 287.063 C 559.019 239.464, 638.008 212.724, 711.228 205.401 C 723.441 204.180, 733.362 203.904, 751 204.297 C 786.279 205.083, 804.796 208.819, 825.696 219.370 C 855.579 234.456, 873.039 256.314, 878.542 285.525 C 880.605 296.481, 880.059 321.318, 877.497 333 C 865.862 386.051, 835.800 438.756, 781.958 500.500 C 766.640 518.066, 724.865 559.706, 706.822 575.394 C 634.258 638.485, 549.448 691.738, 462.766 728.641 C 447.450 735.161, 421.566 745, 419.728 745 C 419.040 745, 413.531 737.061, 407.488 727.358 C 395.781 708.562, 391.552 704.033, 383.743 701.931 C 381.561 701.343, 378.049 701.154, 375.939 701.510 C 371.243 702.304, 364.027 706.950, 360.765 711.282 C 358.304 714.549, 306.282 805.509, 293.021 829.730 C 289.038 837.006, 285.173 844.656, 284.433 846.730 C 280.618 857.423, 285.129 868.964, 295.115 874.059 C 298.782 875.930, 301.656 876, 374.277 876 C 424.366 876, 451.609 875.635, 455.526 874.911 C 466.140 872.948, 474.994 866.855, 476.615 860.397 C 476.953 859.050, 477.051 855.135, 476.832 851.697 C 476.368 844.411, 471.654 833.575, 464.490 823.327 C 462.020 819.794, 460 816.710, 460 816.472 C 460 815.712, 466.929 812.465, 492.527 801.227 C 520.441 788.973, 532.919 782.879, 555.764 770.339 C 595.861 748.331, 640.608 719.131, 676.377 691.632 C 681.809 687.456, 686.658 684.289, 687.152 684.594 C 687.646 684.899, 687.926 684.702, 687.775 684.155 C 687.624 683.609, 693.212 678.481, 700.193 672.760 C 763.619 620.783, 824.231 557.405, 863.980 501.500 C 907.130 440.811, 928.714 395.529, 937.624 347 C 940.080 333.618, 940.104 304.783, 937.667 292.626 C 930.186 255.296, 909.866 225.688, 877.245 204.589 C 861.431 194.361, 848.189 190.248, 818.859 186.454 C 804.069 184.542, 765.896 183.770, 750.500 185.073 M 256.775 448.750 C 237.924 466.405, 207.231 501.444, 187.784 527.510 C 171.138 549.822, 144.056 593.888, 131.250 619.500 C 114.952 652.096, 105.809 680.497, 102.920 707.500 C 101.472 721.037, 102.338 751.448, 104.471 761.975 C 111.740 797.847, 132.412 824.185, 166.840 841.437 C 180.181 848.123, 204.739 855.211, 217.910 856.177 L 222.320 856.500 241.166 826.165 C 251.532 809.481, 259.758 795.418, 259.447 794.915 C 259.136 794.412, 257.728 794, 256.317 794 C 254.906 794, 248.295 792.891, 241.626 791.536 C 185.546 780.138, 153.357 751.518, 145.425 706 C 144.128 698.557, 143.877 692.495, 144.267 678 C 144.861 655.903, 146.974 645.090, 156.011 617.887 C 173.677 564.710, 205.822 511.092, 252.918 456.250 C 260.121 447.863, 265.797 441, 265.532 441 C 265.267 441, 261.326 444.488, 256.775 448.750" stroke="none" fill="#b6b6b7" fill-rule="evenodd"/><path d="M 540.280 485.736 C 542.909 485.943, 546.959 485.940, 549.280 485.731 C 551.601 485.521, 549.450 485.352, 544.500 485.355 C 539.550 485.358, 537.651 485.530, 540.280 485.736" stroke="none" fill="#04b0df" fill-rule="evenodd"/></svg>